# xmcd
#
# Track frame offsets: 
#        150
#        11910
#        26987
#        42021
#        62499
#        75903
#        92764
#        109445
#        117874
#        132146
#        144532
#        163398
#        179851
#        193004
#        213484
#        225630
#        242634
#
# Disc length: 3484 seconds
#
# Revision: 1
# Processed by: cddbd v1.5.2PL0 Copyright (c) Steve Scherf et al.
# Submitted via: ExactAudioCopyFreeDBPlugin 1.0
#
DISCID=f20d9a11
DTITLE=KC Rebell - Rebellution
DYEAR=2014
DGENRE=Hip Hop
TTITLE0=Rebbelution Intro
TTITLE1=Auge
TTITLE2=Kanax in Moskau (feat. Farid Bang)
TTITLE3=Bist Du da (feat. Manuellsen)
TTITLE4=Egoist (feat. Kollegah)
TTITLE5=Herzblut
TTITLE6=Zu spät
TTITLE7=Freestyle Skit Reloaded
TTITLE8=Hayvan (feat. Summer Cem)
TTITLE9=Rap Rebellution
TTITLE10=Geh doch
TTITLE11=Piff (feat. Kurdo)
TTITLE12=Money Boy Interlude
TTITLE13=Money Boy (feat. Majoe)
TTITLE14=Head in a Bed
TTITLE15=Du bist niemand (feat. PA Sport)
TTITLE16=Rebell Army
EXTD=
EXTT0=
EXTT1=
EXTT2=
EXTT3=
EXTT4=
EXTT5=
EXTT6=
EXTT7=
EXTT8=
EXTT9=
EXTT10=
EXTT11=
EXTT12=
EXTT13=
EXTT14=
EXTT15=
EXTT16=
PLAYORDER=
